# Blender v2.79 (sub 0) OBJ File: 'Concrete Barrier 2.blend'
# www.blender.org
o LowPolyBarrier2Plain.001
v 1.502057 0.008797 0.288622
v 1.502056 0.008797 -0.288622
v 1.502057 0.813231 0.095245
v 1.502056 0.813231 -0.095245
v 1.502057 0.314286 0.144311
v 1.502056 0.314286 -0.144311
v 1.502056 0.093633 -0.288622
v 1.502057 0.093633 0.288622
v 1.475173 0.000000 -0.299946
v 1.475173 0.000000 0.299945
v 1.475173 0.818089 -0.098982
v 1.475174 0.818089 0.098982
v 1.475174 0.314286 0.149973
v 1.475173 0.314286 -0.149973
v 1.475173 0.093633 -0.299946
v 1.475174 0.093633 0.299945
v 1.475173 0.314286 0.000000
v 1.475173 0.093633 -0.000000
v 1.475173 0.025607 -0.000000
v 1.475174 0.830789 0.000000
v 1.502056 0.036523 -0.041271
v 1.502057 0.818089 -0.041270
v 1.502057 0.314286 -0.041270
v 1.502057 0.093633 -0.041271
v 1.502056 0.036523 0.043261
v 1.502057 0.818089 0.043262
v 1.502057 0.314286 0.043262
v 1.502057 0.093633 0.043261
v 1.475173 0.000000 -0.126876
v 1.475173 0.000000 0.118410
v 1.502057 0.093633 0.118410
v 1.502056 0.008144 0.154445
v 1.502056 0.093633 -0.126876
v 1.502056 0.008144 -0.162910
v -1.502057 0.008029 0.292459
v -1.502056 0.008029 -0.292459
v -1.502057 0.806904 0.095333
v -1.502056 0.806904 -0.095333
v -1.502057 0.314286 0.144444
v -1.502056 0.314286 -0.144444
v -1.502056 0.093633 -0.288889
v -1.502057 0.093633 0.288889
v -1.475173 0.000000 -0.299946
v -1.475173 0.000000 0.299945
v -1.475173 0.818089 -0.098982
v -1.475174 0.818089 0.098982
v -1.475174 0.314286 0.149973
v -1.475173 0.314286 -0.149973
v -1.475173 0.093633 -0.299946
v -1.475174 0.093633 0.299945
v -1.475173 0.314286 0.000000
v -1.475173 0.093633 -0.000000
v -1.475173 0.025607 -0.000000
v -1.475174 0.832083 0.000000
v -1.502056 0.031560 -0.041271
v -1.502057 0.813665 -0.041270
v -1.502057 0.314286 -0.041270
v -1.502057 0.093633 -0.041271
v -1.502056 0.031560 0.043261
v -1.502057 0.813665 0.043262
v -1.502057 0.314286 0.043262
v -1.502057 0.093633 0.043261
v -1.475173 0.000000 -0.126876
v -1.475173 0.000000 0.118410
v -1.502057 0.093633 0.118410
v -1.502056 0.005745 0.152129
v -1.502056 0.093633 -0.126876
v -1.502056 0.005745 -0.160595
v 1.415473 0.835074 -0.039282
v 1.415474 0.835074 0.000000
v 1.415474 0.835074 0.039282
v -1.415473 0.835074 -0.039282
v -1.415474 0.835074 0.000000
v -1.415474 0.835074 0.039282
vt 0.863380 0.623245
vt 0.871936 0.622548
vt 0.871192 0.649815
vt 0.862837 0.649570
vt 0.863826 0.122432
vt 0.872436 0.123133
vt 0.871854 0.199455
vt 0.863926 0.198892
vt 0.863606 0.546841
vt 0.871529 0.546291
vt 0.863295 0.096079
vt 0.871659 0.095823
vt 0.269634 0.778777
vt 0.284213 0.778777
vt 0.284213 0.841936
vt 0.269634 0.841936
vt 0.872264 0.054601
vt 0.863684 0.044306
vt 0.333129 0.754307
vt 0.369112 0.754494
vt 0.369112 0.778777
vt 0.322815 0.778777
vt 0.269634 0.762430
vt 0.284213 0.759306
vt 0.871797 0.688567
vt 0.863223 0.698874
vt 0.298312 0.778777
vt 0.298312 0.841936
vt 0.327805 0.841936
vt 0.199404 0.754494
vt 0.237810 0.754307
vt 0.248124 0.778777
vt 0.199404 0.778777
vt 0.240710 0.841936
vt 0.872876 0.724991
vt 0.863334 0.735975
vt 0.863823 0.009558
vt 0.873538 0.021058
vt 0.298312 0.762430
vt 0.863768 0.343969
vt 0.871629 0.343633
vt 0.872381 0.359637
vt 0.864164 0.372925
vt 0.871464 0.402186
vt 0.863610 0.401829
vt 0.872316 0.385647
vt 0.019192 0.649495
vt 0.011060 0.649305
vt 0.010361 0.622255
vt 0.018832 0.623023
vt 0.018507 0.198706
vt 0.010528 0.199244
vt 0.010236 0.123009
vt 0.018714 0.122247
vt 0.010732 0.546084
vt 0.018661 0.546619
vt 0.010953 0.095937
vt 0.019090 0.095757
vt 0.109742 0.842622
vt 0.095163 0.842622
vt 0.095163 0.779464
vt 0.109742 0.779464
vt 0.018833 0.043901
vt 0.010535 0.053500
vt 0.056562 0.779464
vt 0.010188 0.779464
vt 0.009166 0.754961
vt 0.046910 0.754307
vt 0.095163 0.759992
vt 0.109742 0.761696
vt 0.018895 0.698889
vt 0.010611 0.689274
vt 0.081065 0.842622
vt 0.081065 0.779464
vt 0.051533 0.842622
vt 0.180050 0.779464
vt 0.131253 0.779464
vt 0.140904 0.754307
vt 0.181071 0.754961
vt 0.138704 0.842622
vt 0.018816 0.735975
vt 0.010038 0.724720
vt 0.009829 0.020942
vt 0.018760 0.009166
vt 0.081065 0.761696
vt 0.017940 0.372722
vt 0.009166 0.358842
vt 0.010526 0.342249
vt 0.018639 0.343765
vt 0.009202 0.386024
vt 0.018770 0.401629
vt 0.010662 0.403156
vt 0.095163 0.990834
vt 0.081065 0.985562
vt 0.298311 0.986142
vt 0.284213 0.989777
vt 0.109742 0.985562
vt 0.313761 0.984752
vt 0.124647 0.983627
vt 0.269634 0.986142
vt 0.254754 0.984751
vt 0.065590 0.983627
vt 0.035531 0.372687
vt 0.035622 0.361559
vt 0.846627 0.361725
vt 0.846682 0.372882
vt 0.035671 0.383815
vt 0.846569 0.384040
vn 0.1667 0.2811 -0.9451
vn 0.7664 0.2024 -0.6096
vn 0.7511 -0.4845 -0.4484
vn 0.2157 -0.6847 -0.6961
vn 0.1667 0.2811 0.9451
vn 0.7664 0.2024 0.6096
vn 0.8290 0.1816 0.5289
vn 0.1151 0.3411 0.9329
vn 0.1151 0.3411 -0.9329
vn 0.8290 0.1816 -0.5289
vn 0.2158 -0.6847 0.6961
vn 0.7511 -0.4846 0.4484
vn 0.9616 0.0000 -0.2744
vn 0.9999 0.0000 0.0107
vn 0.8057 -0.5916 -0.0278
vn 0.2614 -0.9561 -0.1322
vn 0.8055 -0.5919 0.0256
vn 1.0000 0.0000 0.0000
vn 0.8907 -0.3692 -0.2650
vn 0.5884 -0.8085 -0.0012
vn 0.2536 -0.9593 0.1238
vn 0.9586 0.0000 0.2847
vn 0.8852 -0.3791 0.2695
vn 0.1462 0.6836 0.7151
vn 0.6872 0.5017 0.5254
vn 0.8148 0.5598 -0.1506
vn 0.5680 0.8230 0.0035
vn 0.6883 0.5012 -0.5245
vn 0.1478 0.6835 -0.7148
vn 0.8158 0.5555 0.1608
vn -0.1827 -0.6971 -0.6933
vn -0.7227 -0.4833 -0.4941
vn -0.7564 0.2102 -0.6193
vn -0.1469 0.2853 -0.9471
vn -0.1153 0.3414 0.9328
vn -0.8290 0.1822 0.5287
vn -0.7564 0.2102 0.6193
vn -0.1469 0.2853 0.9471
vn -0.8290 0.1822 -0.5287
vn -0.1153 0.3414 -0.9328
vn -0.7227 -0.4834 0.4940
vn -0.1828 -0.6971 0.6932
vn -0.9616 0.0000 -0.2744
vn -0.9999 0.0000 0.0107
vn -0.2131 -0.9681 -0.1317
vn -0.7844 -0.6197 -0.0268
vn -1.0000 0.0000 0.0000
vn -0.7840 -0.6203 0.0244
vn -0.5863 -0.8101 -0.0005
vn -0.8652 -0.4221 -0.2706
vn -0.2043 -0.9711 0.1231
vn -0.9586 0.0000 0.2847
vn -0.8586 -0.4329 0.2745
vn -0.5700 0.8216 0.0028
vn -0.8619 0.4858 -0.1454
vn -0.7245 0.4297 0.5389
vn -0.2003 0.6883 0.6972
vn -0.8626 0.4812 0.1559
vn -0.2019 0.6880 -0.6970
vn -0.7254 0.4292 -0.5381
vn -0.0579 0.9983 0.0000
vn -0.0435 0.9890 0.1409
vn 0.0493 0.9893 0.1375
vn 0.0655 0.9978 0.0000
vn -0.0435 0.9890 -0.1409
vn 0.0493 0.9893 -0.1375
s 1
f 15/1/1 7/2/2 2/3/3 9/4/4
f 16/5/5 8/6/6 5/7/7 13/8/8
f 14/9/9 6/10/10 7/2/2 15/1/1
f 10/11/11 1/12/12 8/6/6 16/5/5
f 28/13/13 18/14/14 17/15/14 27/16/13
f 32/17/15 1/12/12 10/11/11 30/18/16
f 34/19/17 2/20/3 7/21/2 33/22/18
f 25/23/19 19/24/20 18/14/14 28/13/13
f 2/3/3 34/25/17 29/26/21 9/4/4
f 18/14/14 24/27/22 23/28/22 17/15/14
f 6/29/10 33/22/18 7/21/2
f 23/28/22 24/27/22 33/22/18 6/29/10
f 1/30/12 32/31/15 31/32/18 8/33/6
f 31/32/18 5/34/7 8/33/6
f 32/31/15 25/23/19 28/13/13 31/32/18
f 27/16/13 5/34/7 31/32/18 28/13/13
f 29/26/21 34/25/17 21/35/23 19/36/20
f 32/17/15 30/18/16 19/37/20 25/38/19
f 21/39/23 34/19/17 33/22/18 24/27/22
f 19/24/20 21/39/23 24/27/22 18/14/14
f 12/40/24 3/41/25 26/42/26 20/43/27
f 4/44/28 11/45/29 20/43/27 22/46/30
f 43/47/31 36/48/32 41/49/33 49/50/34
f 47/51/35 39/52/36 42/53/37 50/54/38
f 49/50/34 41/49/33 40/55/39 48/56/40
f 50/54/38 42/53/37 35/57/41 44/58/42
f 61/59/43 51/60/44 52/61/44 62/62/43
f 64/63/45 44/58/42 35/57/41 66/64/46
f 67/65/47 41/66/33 36/67/32 68/68/48
f 62/62/43 52/61/44 53/69/49 59/70/50
f 43/47/31 63/71/51 68/72/48 36/48/32
f 51/60/44 57/73/52 58/74/52 52/61/44
f 41/66/33 67/65/47 40/75/39
f 40/75/39 67/65/47 58/74/52 57/73/52
f 42/76/37 65/77/47 66/78/46 35/79/41
f 42/76/37 39/80/36 65/77/47
f 65/77/47 62/62/43 59/70/50 66/78/46
f 62/62/43 65/77/47 39/80/36 61/59/43
f 53/81/49 55/82/53 68/72/48 63/71/51
f 59/83/50 53/84/49 64/63/45 66/64/46
f 58/74/52 67/65/47 68/68/48 55/85/53
f 52/61/44 58/74/52 55/85/53 53/69/49
f 54/86/54 60/87/55 37/88/56 46/89/57
f 56/90/58 54/86/54 45/91/59 38/92/60
f 48/56/40 40/55/39 38/92/60 45/91/59
f 46/89/57 37/88/56 39/52/36 47/51/35
f 11/45/29 4/44/28 6/10/10 14/9/9
f 54/93/54 56/94/58 57/73/52 51/60/44
f 17/15/14 23/28/22 22/95/30 20/96/27
f 60/97/55 54/93/54 51/60/44 61/59/43
f 23/28/22 6/29/10 4/98/28 22/95/30
f 13/8/8 5/7/7 3/41/25 12/40/24
f 37/99/56 60/97/55 61/59/43 39/80/36
f 27/16/13 17/15/14 20/96/27 26/100/26
f 5/34/7 27/16/13 26/100/26 3/101/25
f 56/94/58 38/102/60 40/75/39 57/73/52
f 44/58/42 64/63/45 30/18/16 10/11/11
f 50/54/38 16/5/5 13/8/8 47/51/35
f 44/58/42 10/11/11 16/5/5 50/54/38
f 64/63/45 53/84/49 19/37/20 30/18/16
f 49/50/34 15/1/1 9/4/4 43/47/31
f 48/56/40 14/9/9 15/1/1 49/50/34
f 45/91/59 11/45/29 14/9/9 48/56/40
f 53/81/49 63/71/51 29/26/21 19/36/20
f 73/103/61 74/104/62 71/105/63 70/106/64
f 47/51/35 13/8/8 12/40/24 46/89/57
f 72/107/65 73/103/61 70/106/64 69/108/66
f 63/71/51 43/47/31 9/4/4 29/26/21
f 69/108/66 70/106/64 20/43/27 11/45/29
f 70/106/64 71/105/63 12/40/24 20/43/27
f 73/103/61 72/107/65 45/91/59 54/86/54
f 74/104/62 73/103/61 54/86/54 46/89/57
f 71/105/63 74/104/62 46/89/57 12/40/24
f 72/107/65 69/108/66 11/45/29 45/91/59
